<svg width="204" height="55" viewBox="0 0 204 55" fill="none" xmlns="http://www.w3.org/2000/svg">
<path d="M68.9091 0.835991C69.2859 2.70256 69.6626 4.56914 70.0565 6.43571C70.2791 7.56593 70.5188 8.69614 70.7586 9.82636C74.0807 10.2031 77.3686 10.5627 80.6565 10.9395C80.6737 10.9737 80.6908 11.008 80.7079 11.0422C79.6804 11.5559 78.6358 12.0526 77.6084 12.5663C77.6084 12.6005 77.6255 12.6348 77.6255 12.669C78.6701 12.6005 79.7147 12.5149 80.7764 12.4807C81.6155 12.4464 82.4546 12.4635 83.2937 12.4464C84.6465 12.4122 85.9994 12.3437 87.3522 12.3437C88.9448 12.3437 90.5203 12.395 92.1128 12.4464C93.4999 12.4978 94.887 12.5663 96.257 12.6519C97.6954 12.7375 99.1168 12.8403 100.538 12.9773C102.456 13.1656 104.357 13.4054 106.258 13.6109C107.919 13.7993 109.597 13.9362 111.258 14.1589C112.833 14.3644 114.426 14.6212 115.984 14.8952C118.228 15.3062 120.471 15.7001 122.68 16.1967C126.893 17.1385 130.985 18.44 134.958 20.1182C137.373 21.1457 139.77 22.2245 142.116 23.4232C144.668 24.7247 147.185 26.146 149.48 27.8927C149.6 27.9784 149.703 28.0982 149.805 28.201C149.788 28.2523 149.754 28.3037 149.737 28.338C149.446 28.2523 149.155 28.201 148.881 28.0811C146.072 26.831 143.281 25.4782 140.438 24.3137C137.185 22.978 133.862 21.8306 130.438 21.0087C128.074 20.4436 125.728 19.81 123.348 19.3305C121.362 18.9195 119.341 18.6626 117.32 18.3372C115.745 18.0804 114.169 17.8235 112.594 17.6009C111.532 17.4468 110.453 17.3783 109.391 17.2584C107.73 17.0872 106.069 16.8988 104.391 16.7275C103.86 16.6762 103.329 16.6419 102.799 16.6077C100.641 16.5049 98.466 16.3851 96.3083 16.2823C95.6405 16.2481 94.9555 16.1967 94.2876 16.1796C91.8902 16.1282 89.5099 16.0939 87.1125 16.0768C85.7939 16.0768 84.4753 16.1111 83.1567 16.1796C81.5128 16.2652 79.8688 16.3508 78.2249 16.5049C76.2384 16.6933 74.2691 16.933 72.2484 17.1557C72.7964 19.7243 73.3272 22.2759 73.8581 24.8103C73.8067 24.8274 73.7725 24.8446 73.7211 24.8617C71.2723 22.5328 68.8235 20.2209 66.3918 17.9091C63.4464 19.5702 60.5181 21.2142 57.5898 22.841C57.5556 22.8067 57.5042 22.7725 57.4699 22.7383C58.9255 19.8785 60.3982 17.0187 61.8709 14.1246C59.3708 11.8642 56.8706 9.60374 54.3533 7.36043C54.3704 7.32618 54.3704 7.29193 54.3875 7.25769C54.7814 7.29193 55.1752 7.30906 55.552 7.36043C56.9904 7.56593 58.4289 7.77142 59.8845 7.99404C61.2202 8.19953 62.5559 8.40503 63.8916 8.62765C64.3711 8.71327 64.5766 8.5249 64.7992 8.09679C65.9979 5.8021 67.248 3.52454 68.481 1.22986C68.5495 1.09286 68.6009 0.938739 68.6522 0.801743C68.755 0.835992 68.8235 0.835991 68.9091 0.835991Z" fill="#B9884F"/>
<path d="M63.3264 54.1789C61.203 48.5791 59.0795 42.9794 56.939 37.3112C57.8294 37.3112 58.6514 37.2941 59.4734 37.3283C59.6104 37.3283 59.7988 37.4996 59.8501 37.6537C61.0831 40.993 62.3161 44.3323 63.549 47.6715C63.5662 47.74 63.6347 47.7914 63.6347 47.8085C65.0217 44.2124 66.4088 40.582 67.7959 36.9516C67.8473 36.9687 67.9158 36.9687 67.9672 36.9859C69.4056 40.5991 70.8612 44.2295 72.2654 47.7572C72.7791 46.3358 73.3271 44.8289 73.8751 43.3219C74.543 41.4896 75.2108 39.6401 75.8787 37.8078C75.9986 37.4825 76.1869 37.277 76.615 37.2941C77.3514 37.3455 78.0877 37.3112 78.9097 37.3112C76.7692 42.9623 74.6286 48.562 72.5051 54.1617C72.4538 54.1617 72.4024 54.1789 72.351 54.1789C70.8441 50.4971 69.32 46.8153 67.8644 43.2363C67.1794 44.9488 66.4259 46.7811 65.6896 48.6134C64.9532 50.4628 64.1998 52.3123 63.4634 54.1446C63.4292 54.1617 63.3778 54.1789 63.3264 54.1789Z" fill="#B9884F"/>
<path d="M88.7906 54.2133C85.965 54.2647 83.6703 53.1002 81.8551 51.0282C80.6907 49.7096 80.0913 48.1341 79.9543 46.336C79.8516 44.8805 80.0399 43.5276 80.5879 42.1748C81.29 40.4795 82.4887 39.2465 83.9957 38.2533C85.8452 37.0374 87.9344 36.7977 90.0407 37.0032C91.8387 37.1915 93.4313 37.9279 94.8013 39.1609C96.3082 40.4966 97.233 42.1405 97.5755 44.0927C97.9693 46.4217 97.507 48.6136 96.0856 50.5315C94.6985 52.4152 92.832 53.5797 90.5373 54.0249C89.9722 54.1619 89.3728 54.1619 88.7906 54.2133ZM88.7734 39.5719C85.5198 39.452 82.8312 42.209 82.797 45.5654C82.7799 48.7677 85.2972 51.3878 88.3111 51.6104C92.1299 51.8844 94.7842 48.7163 94.7842 45.5997C94.7842 42.3974 92.1127 39.4177 88.7734 39.5719Z" fill="#B9884F"/>
<path d="M194.175 54.2133C191.349 54.2647 189.055 53.1002 187.239 51.0282C186.075 49.7096 185.476 48.1341 185.339 46.336C185.236 44.8805 185.424 43.5276 185.972 42.1748C186.674 40.4795 187.873 39.2465 189.38 38.2533C191.229 37.0374 193.319 36.7977 195.425 37.0032C197.223 37.1915 198.816 37.9279 200.186 39.1609C201.693 40.5137 202.617 42.1405 202.943 44.0927C203.336 46.4217 202.874 48.6136 201.453 50.5315C200.066 52.4152 198.199 53.5797 195.904 54.0078C195.339 54.1619 194.757 54.1619 194.175 54.2133ZM194.123 51.5933C197.446 51.7645 200.168 48.7848 200.151 45.5997C200.134 42.346 197.531 39.726 194.569 39.5719C190.818 39.3664 188.198 42.346 188.181 45.5826C188.164 48.7848 190.784 51.696 194.123 51.5933Z" fill="#B9884F"/>
<path d="M179.225 44.726C177.616 47.7913 175.937 50.9936 174.208 54.2815C174.054 54.076 173.951 53.9733 173.882 53.8363C173.129 52.3807 172.393 50.9251 171.656 49.4695C171.074 48.3393 170.458 47.2091 169.858 46.0789C169.567 45.5309 169.327 44.9486 169.122 44.4692C168.437 47.5516 167.735 50.6682 167.033 53.8191C166.176 53.8191 165.32 53.8191 164.43 53.8191C165.731 48.3222 167.015 42.8423 168.317 37.3454C168.351 37.3282 168.403 37.294 168.454 37.2769C169.379 39.2462 170.389 41.1812 171.314 43.1677C172.238 45.1541 173.215 47.1063 174.191 49.1099C176.057 45.1884 177.924 41.2497 179.807 37.3111C179.859 37.3111 179.91 37.3111 179.944 37.3111C181.28 42.8081 182.599 48.305 183.934 53.8191C183.044 53.8191 182.188 53.8191 181.297 53.8191C180.595 50.7367 179.893 47.6543 179.225 44.726Z" fill="#B9884F"/>
<path d="M124.461 53.8537C124.461 48.3396 124.461 42.8769 124.461 37.3286C124.632 37.3286 124.786 37.3286 124.958 37.3286C126.944 37.3286 128.93 37.2772 130.917 37.3457C133.092 37.4142 135.078 37.9793 136.602 39.6746C137.544 40.7192 138.092 41.9693 138.366 43.3221C138.76 45.2401 138.709 47.158 138.058 48.9903C137.133 51.5419 135.369 53.1859 132.629 53.6482C131.944 53.7681 131.225 53.8537 130.523 53.8537C128.691 53.888 126.875 53.8708 125.043 53.8708C124.872 53.8537 124.684 53.8537 124.461 53.8537ZM127.269 39.589C127.269 43.6133 127.269 47.4834 127.269 51.4392C128.742 51.3535 130.181 51.285 131.602 51.148C133.16 50.9939 134.29 50.1377 134.958 48.7506C135.951 46.6957 135.951 44.5893 135.061 42.5002C134.496 41.1816 133.52 40.2226 132.064 40.0171C130.489 39.7945 128.896 39.726 127.269 39.589Z" fill="#B9884F"/>
<path d="M41.7153 46.5242C41.7153 48.9388 41.7153 51.3705 41.7153 53.8193C40.8248 53.8193 39.9686 53.8193 39.0781 53.8193C39.0781 48.3565 39.0781 42.8767 39.0781 37.3455C39.2322 37.3455 39.4035 37.3284 39.5919 37.3284C41.1159 37.3284 42.64 37.3112 44.1641 37.3284C46.8527 37.3626 48.5651 38.9381 48.6165 41.7807C48.6336 42.637 48.5309 43.4589 48.1712 44.2467C47.6746 45.3426 46.7842 45.9249 45.6539 46.216C45.4484 46.2673 45.243 46.3016 44.9347 46.3701C46.8013 48.8531 48.6507 51.302 50.5687 53.8364C49.4898 53.8364 48.4966 53.8364 47.5034 53.8193C47.3835 53.8193 47.2465 53.6994 47.1609 53.5966C46.0992 52.1582 45.0375 50.7197 43.9757 49.2813C43.2736 48.3394 42.5715 47.3976 41.8694 46.4557C41.8009 46.49 41.7667 46.5071 41.7153 46.5242ZM41.8523 44.298C42.503 44.298 43.1195 44.3665 43.7189 44.2809C44.4895 44.1782 45.2943 44.0069 45.5512 43.1336C45.6882 42.6712 45.6882 42.1575 45.6711 41.6609C45.6368 40.7019 45.2258 40.1368 44.3011 39.9141C43.5134 39.7258 42.6914 39.6744 41.8352 39.5545C41.8523 41.1985 41.8523 42.7739 41.8523 44.298Z" fill="#B9884F"/>
<path d="M112.217 53.8535C111.172 53.8535 110.231 53.8706 109.306 53.8364C109.135 53.8364 108.912 53.7336 108.809 53.6138C107.131 51.3705 105.47 49.11 103.809 46.8496C103.723 46.7297 103.603 46.6098 103.398 46.4043C103.398 48.9388 103.398 51.3705 103.398 53.8193C102.473 53.8193 101.634 53.8193 100.726 53.8193C100.726 48.3394 100.726 42.8596 100.726 37.3455C100.898 37.3455 101.069 37.3284 101.24 37.3284C102.764 37.3284 104.288 37.3112 105.795 37.3284C108.484 37.3626 110.196 38.9381 110.248 41.7978C110.265 42.6541 110.145 43.4761 109.802 44.2638C109.306 45.3597 108.415 45.942 107.285 46.2331C107.08 46.2845 106.874 46.3187 106.566 46.3872C108.45 48.8532 110.299 51.3191 112.217 53.8535ZM103.518 39.5374C103.518 41.2156 103.518 42.7911 103.518 44.2809C104.134 44.2809 104.716 44.3323 105.299 44.2638C105.744 44.2124 106.223 44.1097 106.583 43.887C107.388 43.3733 107.456 42.5513 107.354 41.678C107.234 40.6505 106.908 40.1539 105.881 39.897C105.145 39.7087 104.34 39.6573 103.518 39.5374Z" fill="#B9884F"/>
<path d="M0 50.3601C0.71923 50.0347 1.47271 49.7094 2.20906 49.3669C2.92829 51.6273 5.15448 52.004 6.71281 51.3019C8.20264 50.6341 8.37389 48.5278 6.90118 47.6202C6.06208 47.1064 5.15448 46.7126 4.31538 46.1988C3.33928 45.5823 2.36318 44.9487 1.47271 44.2295C0.753479 43.6473 0.513736 42.791 0.479487 41.8834C0.428113 40.7875 0.547985 39.7258 1.23297 38.8353C2.08919 37.7051 3.23653 37.0715 4.65787 37.0201C5.73671 36.9687 6.81556 36.9002 7.86015 37.3283C9.0075 37.8078 9.89797 38.5442 10.2918 39.8114C9.65823 40.1539 9.05887 40.4621 8.47664 40.7875C8.21977 40.9245 8.06565 40.8731 7.87728 40.6162C7.17517 39.6059 6.1477 39.2976 4.98323 39.5031C4.17838 39.6401 3.51053 40.3251 3.40778 41.0101C3.28791 41.8663 3.64752 42.5684 4.36675 42.9965C5.51409 43.6986 6.72994 44.2809 7.91153 44.9487C8.939 45.531 9.9151 46.1817 10.4631 47.3119C11.1994 48.8874 10.7884 51.3191 9.58973 52.5863C8.52801 53.7165 7.22655 54.1617 5.70246 54.1789C4.538 54.196 3.4249 54.1275 2.34606 53.6137C1.13022 53.0315 0.171245 51.7643 0 50.3601Z" fill="#B9884F"/>
<path d="M37.5712 53.8366C36.578 53.8366 35.6532 53.8537 34.7285 53.8195C34.6258 53.8195 34.4716 53.6482 34.4203 53.5283C33.9408 52.4495 33.4784 51.3535 32.9989 50.2576C32.8277 49.8637 32.6393 49.6239 32.1085 49.6239C30.3446 49.6753 28.5637 49.6582 26.7999 49.6411C26.4231 49.6411 26.2519 49.7267 26.0806 50.1206C25.6011 51.285 25.0532 52.4152 24.4881 53.5455C24.4196 53.6825 24.1969 53.8023 24.0599 53.8023C23.2037 53.8195 22.3475 53.8195 21.4056 53.8195C24.0942 48.2711 26.7485 42.7741 29.4713 37.123C32.2283 42.7913 34.8826 48.2711 37.5712 53.8366ZM31.7317 47.3978C30.9611 45.7196 30.2248 44.1098 29.5398 42.6029C28.8548 44.127 28.1184 45.7538 27.365 47.3978C28.8548 47.3978 30.259 47.3978 31.7317 47.3978Z" fill="#B9884F"/>
<path d="M19.0596 53.8366C18.0835 53.8366 17.2101 53.8366 16.2854 53.8366C16.2854 49.1102 16.2854 44.3838 16.2854 39.6061C14.7956 39.6061 13.3571 39.6061 11.8844 39.6061C11.8844 38.8355 11.8844 38.1163 11.8844 37.3628C15.686 37.3628 19.4877 37.3628 23.3236 37.3628C23.3236 38.0991 23.3236 38.8013 23.3236 39.5719C21.9194 39.5719 20.5152 39.5719 19.0596 39.5719C19.0596 44.3325 19.0596 49.0588 19.0596 53.8366Z" fill="#B9884F"/>
<path d="M116.378 37.3628C116.378 42.072 116.378 46.7299 116.378 51.4563C118.365 51.4563 120.351 51.4563 122.355 51.4563C122.355 52.2783 122.355 53.0317 122.355 53.8195C119.461 53.8195 116.567 53.8195 113.621 53.8195C113.621 48.3567 113.621 42.8769 113.621 37.3628C114.512 37.3628 115.419 37.3628 116.378 37.3628Z" fill="#B9884F"/>
<path d="M148.641 37.3452C149.566 37.3452 150.456 37.3452 151.381 37.3452C151.381 42.0545 151.381 46.7295 151.381 51.4558C153.401 51.4558 155.371 51.4558 157.374 51.4558C157.374 52.2778 157.374 53.0313 157.374 53.8019C154.463 53.8019 151.569 53.8019 148.641 53.8019C148.641 48.3392 148.641 42.8593 148.641 37.3452Z" fill="#B9884F"/>
<path d="M162.323 53.8195C161.399 53.8195 160.508 53.8195 159.6 53.8195C159.6 48.3396 159.6 42.8769 159.6 37.3628C160.491 37.3628 161.399 37.3628 162.323 37.3628C162.323 42.8255 162.323 48.3054 162.323 53.8195Z" fill="#B9884F"/>
</svg>
