<svg width="13" height="14" viewBox="0 0 13 14" fill="none" xmlns="http://www.w3.org/2000/svg">
<path d="M0.917236 13.2486C0.917236 13.5248 1.14109 13.7486 1.41724 13.7486C1.69338 13.7486 1.91724 13.5248 1.91724 13.2486H0.917236ZM11.5839 13.2486C11.5839 13.5248 11.8078 13.7486 12.0839 13.7486C12.36 13.7486 12.5839 13.5248 12.5839 13.2486H11.5839ZM1.91724 13.2486C1.91724 12.5627 2.36343 11.8662 3.24433 11.3156C4.11819 10.7694 5.35653 10.4153 6.75057 10.4153V9.41528C5.19909 9.41528 3.77076 9.80733 2.71433 10.4676C1.66495 11.1235 0.917236 12.0935 0.917236 13.2486H1.91724ZM6.75057 10.4153C8.14461 10.4153 9.38295 10.7694 10.2568 11.3156C11.1377 11.8662 11.5839 12.5627 11.5839 13.2486H12.5839C12.5839 12.0935 11.8362 11.1235 10.7868 10.4676C9.73038 9.80733 8.30205 9.41528 6.75057 9.41528V10.4153Z" fill="#B9884F"/>
<path d="M9.58537 4.58217C9.58537 6.14698 8.31684 7.41551 6.75204 7.41551V8.41551C8.86913 8.41551 10.5854 6.69927 10.5854 4.58217H9.58537ZM6.75204 7.41551C5.18723 7.41551 3.9187 6.14698 3.9187 4.58217H2.9187C2.9187 6.69927 4.63494 8.41551 6.75204 8.41551V7.41551ZM3.9187 4.58217C3.9187 3.01737 5.18723 1.74884 6.75204 1.74884V0.74884C4.63494 0.74884 2.9187 2.46508 2.9187 4.58217H3.9187ZM6.75204 1.74884C8.31684 1.74884 9.58537 3.01737 9.58537 4.58217H10.5854C10.5854 2.46508 8.86913 0.74884 6.75204 0.74884V1.74884Z" fill="#B9884F"/>
</svg>
