<svg width="21" height="21" viewBox="0 0 21 21" fill="none" xmlns="http://www.w3.org/2000/svg">
<path d="M4.91569 8.08179H15.5824V7.08179H4.91569V8.08179ZM15.749 8.24845V14.9151H16.749V8.24845H15.749ZM15.5824 15.0818H4.91569V16.0818H15.5824V15.0818ZM4.74902 14.9151V8.24845H3.74902V14.9151H4.74902ZM4.91569 15.0818C4.82364 15.0818 4.74902 15.0072 4.74902 14.9151H3.74902C3.74902 15.5595 4.27136 16.0818 4.91569 16.0818V15.0818ZM15.749 14.9151C15.749 15.0072 15.6744 15.0818 15.5824 15.0818V16.0818C16.2267 16.0818 16.749 15.5595 16.749 14.9151H15.749ZM15.5824 8.08179C15.6744 8.08179 15.749 8.15641 15.749 8.24845H16.749C16.749 7.60412 16.2267 7.08179 15.5824 7.08179V8.08179ZM4.91569 7.08179C4.27136 7.08179 3.74902 7.60412 3.74902 8.24845H4.74902C4.74902 8.15641 4.82364 8.08179 4.91569 8.08179V7.08179Z" fill="#B9884F"/>
<path d="M7.08154 7.58195C7.08154 7.85809 7.3054 8.08195 7.58154 8.08195C7.85769 8.08195 8.08154 7.85809 8.08154 7.58195H7.08154ZM12.4149 7.58195C12.4149 7.85809 12.6387 8.08195 12.9149 8.08195C13.191 8.08195 13.4149 7.85809 13.4149 7.58195H12.4149ZM8.08154 7.58195C8.08154 6.38533 9.05159 5.41528 10.2482 5.41528V4.41528C8.49931 4.41528 7.08154 5.83305 7.08154 7.58195H8.08154ZM10.2482 5.41528C11.4448 5.41528 12.4149 6.38533 12.4149 7.58195H13.4149C13.4149 5.83305 11.9971 4.41528 10.2482 4.41528V5.41528Z" fill="#B9884F"/>
</svg>
