<svg width="71" height="19" viewBox="0 0 71 19" fill="none" xmlns="http://www.w3.org/2000/svg">
<path d="M0.179199 14.4216V0.472992H17.6427V4.35104H7.19046V5.92688H17.6427V8.9616H7.19046V10.5374H17.6427V14.4216H0.179199Z" fill="white"/>
<path d="M26.8025 14.4216H18.2954L24.9435 7.24418L18.8987 0.472992H27.2272L30.0957 4.59726L33.2536 0.472992H41.299L35.2542 7.30573L41.9269 14.4216H33.272L30.0342 10.0511L26.8025 14.4216Z" fill="white"/>
<path d="M49.6954 0.472992H42.678V14.4216H49.6954V0.472992Z" fill="white"/>
<path d="M64.2285 5.58216V14.4216H57.2173V5.58216H50.5261V0.472992H70.9197V5.58216H64.2285Z" fill="white"/>
<path d="M1.42253 17.3024C1.42253 17.3517 1.48409 17.3763 1.58258 17.3886L2.45052 17.4932C2.94297 17.5548 3.18304 17.7333 3.18304 18.0719C3.18304 18.5212 2.89373 18.7798 1.70569 18.7798C0.517654 18.7798 0.191406 18.6074 0.191406 18.0534H1.42253C1.42253 18.195 1.52718 18.2442 1.73031 18.2442C1.93345 18.2442 1.95807 18.2011 1.95807 18.1396C1.95807 18.078 1.89036 18.0595 1.7734 18.0411L0.868525 17.9303C0.437631 17.881 0.197562 17.7087 0.197562 17.3147C0.197562 16.9208 0.511499 16.6561 1.63798 16.6561C2.76446 16.6561 3.11533 16.8223 3.12764 17.3393H1.89651C1.89651 17.2224 1.76109 17.1916 1.63798 17.1916C1.51487 17.1916 1.40406 17.1916 1.40406 17.2778" fill="white"/>
<path d="M4.50064 18.7182C3.88507 18.7182 3.66963 18.3858 3.66963 17.9488V17.4502H3.21411V16.7361H3.66963V15.9851H4.99309V16.7361H5.60865V17.4502H4.99309V17.8257C4.99309 17.9426 5.04849 17.9919 5.16544 17.9919H5.57787V18.7182H4.50064Z" fill="white"/>
<path d="M7.35685 18.0844C7.39312 18.0872 7.42956 18.0821 7.46368 18.0694C7.4978 18.0568 7.52878 18.0369 7.5545 18.0112C7.58023 17.9855 7.60009 17.9545 7.61272 17.9204C7.62535 17.8863 7.63046 17.8498 7.62769 17.8136V16.7363H8.945V18.7184H7.62769V18.2445H7.57845C7.49227 18.5769 7.2522 18.78 6.73513 18.78C6.21805 18.78 5.78101 18.5953 5.78101 18.0167V16.7363H7.10446V17.7828C7.10446 18.0044 7.19064 18.0844 7.36916 18.0844" fill="white"/>
<path d="M9.16675 17.7269C9.16675 16.9267 9.52377 16.6682 10.2563 16.6682C10.8165 16.6682 11.0504 16.8713 11.1304 17.2037H11.1919V15.9726H12.5031V18.7057H11.1919V18.2317H11.1304C11.0504 18.5641 10.8165 18.7672 10.2563 18.7672C9.52377 18.7672 9.16675 18.5272 9.16675 17.7269ZM11.1919 17.7823V17.7269C11.196 17.6828 11.1901 17.6383 11.1746 17.5968C11.1592 17.5553 11.1346 17.5178 11.1027 17.487C11.0708 17.4563 11.0323 17.4331 10.9902 17.4192C10.9482 17.4054 10.9035 17.4011 10.8595 17.4069C10.6195 17.4069 10.4841 17.493 10.4841 17.77C10.4841 18.047 10.6072 18.1148 10.8595 18.1148C10.9008 18.12 10.9427 18.1164 10.9825 18.1043C11.0223 18.0922 11.0591 18.0718 11.0905 18.0445C11.1219 18.0172 11.1471 17.9835 11.1646 17.9458C11.1821 17.908 11.1914 17.867 11.1919 17.8254" fill="white"/>
<path d="M12.7861 15.9851H14.1157V16.533H12.7861V15.9851ZM14.1096 18.7182H12.7861V16.7361H14.1096V18.7182Z" fill="white"/>
<path d="M17.6429 17.727C17.6429 18.5149 17.1381 18.7673 15.9809 18.7673C14.8236 18.7673 14.3496 18.5272 14.3496 17.727C14.3496 16.9268 14.8544 16.6682 16.0116 16.6682C17.1689 16.6682 17.6736 16.9145 17.6736 17.727H17.6429ZM16.3563 17.727C16.3563 17.4808 16.264 17.37 16.0116 17.37C15.7592 17.37 15.6669 17.4808 15.6669 17.727C15.6669 17.9732 15.7531 18.0656 16.0116 18.0656C16.2702 18.0656 16.3563 17.9548 16.3563 17.727Z" fill="white"/>
</svg>
