<?xml version="1.0" encoding="utf-8"?>
<!-- Generator: Adobe Illustrator 25.2.1, SVG Export Plug-In . SVG Version: 6.00 Build 0)  -->
<svg version="1.1" id="Layer_1" xmlns="http://www.w3.org/2000/svg" xmlns:xlink="http://www.w3.org/1999/xlink" x="0px" y="0px"
	 viewBox="0 0 204 72.5" style="enable-background:new 0 0 204 72.5;" xml:space="preserve">
<style type="text/css">
	.st0{fill:#B9884F;}
	.st1{fill:#FFFFFF;}
	.st2{font-family:'MyriadPro-Regular';}
	.st3{font-size:10px;}
</style>
<path class="st0" d="M68.9,0c0.4,1.9,0.8,3.7,1.1,5.6c0.2,1.1,0.5,2.3,0.7,3.4c3.3,0.4,6.6,0.7,9.9,1.1c0,0,0,0.1,0.1,0.1
	c-1,0.5-2.1,1-3.1,1.5c0,0,0,0.1,0,0.1c1-0.1,2.1-0.2,3.2-0.2c0.8,0,1.7,0,2.5,0c1.4,0,2.7-0.1,4.1-0.1c1.6,0,3.2,0.1,4.8,0.1
	c1.4,0.1,2.8,0.1,4.1,0.2c1.4,0.1,2.9,0.2,4.3,0.3c1.9,0.2,3.8,0.4,5.7,0.6c1.7,0.2,3.3,0.3,5,0.5c1.6,0.2,3.2,0.5,4.7,0.7
	c2.2,0.4,4.5,0.8,6.7,1.3c4.2,0.9,8.3,2.2,12.3,3.9c2.4,1,4.8,2.1,7.2,3.3c2.6,1.3,5.1,2.7,7.4,4.5c0.1,0.1,0.2,0.2,0.3,0.3
	c0,0.1-0.1,0.1-0.1,0.1c-0.3-0.1-0.6-0.1-0.9-0.3c-2.8-1.3-5.6-2.6-8.4-3.8c-3.3-1.3-6.6-2.5-10-3.3c-2.4-0.6-4.7-1.2-7.1-1.7
	c-2-0.4-4-0.7-6-1c-1.6-0.3-3.2-0.5-4.7-0.7c-1.1-0.2-2.1-0.2-3.2-0.3c-1.7-0.2-3.3-0.4-5-0.5c-0.5-0.1-1.1-0.1-1.6-0.1
	c-2.2-0.1-4.3-0.2-6.5-0.3c-0.7,0-1.4-0.1-2-0.1c-2.4-0.1-4.8-0.1-7.2-0.1c-1.3,0-2.6,0-4,0.1c-1.6,0.1-3.3,0.2-4.9,0.3
	c-2,0.2-4,0.4-6,0.7c0.5,2.6,1.1,5.1,1.6,7.7c-0.1,0-0.1,0-0.1,0.1c-2.4-2.3-4.9-4.6-7.3-7c-2.9,1.7-5.9,3.3-8.8,4.9
	c0,0-0.1-0.1-0.1-0.1c1.5-2.9,2.9-5.7,4.4-8.6c-2.5-2.3-5-4.5-7.5-6.8c0,0,0-0.1,0-0.1c0.4,0,0.8,0.1,1.2,0.1
	C57,6.8,58.4,7,59.9,7.2c1.3,0.2,2.7,0.4,4,0.6c0.5,0.1,0.7-0.1,0.9-0.5C66,5,67.2,2.7,68.5,0.4c0.1-0.1,0.1-0.3,0.2-0.4
	C68.8,0,68.8,0,68.9,0z"/>
<path class="st0" d="M63.3,53.4c-2.1-5.6-4.2-11.2-6.4-16.9c0.9,0,1.7,0,2.5,0c0.1,0,0.3,0.2,0.4,0.3c1.2,3.3,2.5,6.7,3.7,10
	c0,0.1,0.1,0.1,0.1,0.1c1.4-3.6,2.8-7.2,4.2-10.9c0.1,0,0.1,0,0.2,0c1.4,3.6,2.9,7.2,4.3,10.8c0.5-1.4,1.1-2.9,1.6-4.4
	c0.7-1.8,1.3-3.7,2-5.5c0.1-0.3,0.3-0.5,0.7-0.5c0.7,0.1,1.5,0,2.3,0c-2.1,5.7-4.3,11.3-6.4,16.9c-0.1,0-0.1,0-0.2,0
	c-1.5-3.7-3-7.4-4.5-10.9c-0.7,1.7-1.4,3.5-2.2,5.4c-0.7,1.8-1.5,3.7-2.2,5.5C63.4,53.4,63.4,53.4,63.3,53.4z"/>
<path class="st0" d="M88.8,53.4c-2.8,0.1-5.1-1.1-6.9-3.2c-1.2-1.3-1.8-2.9-1.9-4.7c-0.1-1.5,0.1-2.8,0.6-4.2
	c0.7-1.7,1.9-2.9,3.4-3.9c1.8-1.2,3.9-1.5,6-1.3c1.8,0.2,3.4,0.9,4.8,2.2c1.5,1.3,2.4,3,2.8,4.9c0.4,2.3-0.1,4.5-1.5,6.4
	c-1.4,1.9-3.3,3-5.5,3.5C90,53.4,89.4,53.4,88.8,53.4z M88.8,38.8c-3.3-0.1-5.9,2.6-6,6c0,3.2,2.5,5.8,5.5,6c3.8,0.3,6.5-2.9,6.5-6
	C94.8,41.6,92.1,38.6,88.8,38.8z"/>
<path class="st0" d="M194.2,53.4c-2.8,0.1-5.1-1.1-6.9-3.2c-1.2-1.3-1.8-2.9-1.9-4.7c-0.1-1.5,0.1-2.8,0.6-4.2
	c0.7-1.7,1.9-2.9,3.4-3.9c1.8-1.2,3.9-1.5,6-1.3c1.8,0.2,3.4,0.9,4.8,2.2c1.5,1.4,2.4,3,2.8,4.9c0.4,2.3-0.1,4.5-1.5,6.4
	c-1.4,1.9-3.3,3-5.5,3.5C195.3,53.4,194.8,53.4,194.2,53.4z M194.1,50.8c3.3,0.2,6-2.8,6-6c0-3.3-2.6-5.9-5.6-6
	c-3.8-0.2-6.4,2.8-6.4,6C188.2,48,190.8,50.9,194.1,50.8z"/>
<path class="st0" d="M179.2,43.9c-1.6,3.1-3.3,6.3-5,9.6c-0.2-0.2-0.3-0.3-0.3-0.4c-0.8-1.5-1.5-2.9-2.2-4.4
	c-0.6-1.1-1.2-2.3-1.8-3.4c-0.3-0.5-0.5-1.1-0.7-1.6c-0.7,3.1-1.4,6.2-2.1,9.3c-0.9,0-1.7,0-2.6,0c1.3-5.5,2.6-11,3.9-16.5
	c0,0,0.1-0.1,0.1-0.1c0.9,2,1.9,3.9,2.9,5.9c0.9,2,1.9,3.9,2.9,5.9c1.9-3.9,3.7-7.9,5.6-11.8c0.1,0,0.1,0,0.1,0
	c1.3,5.5,2.7,11,4,16.5c-0.9,0-1.7,0-2.6,0C180.6,49.9,179.9,46.9,179.2,43.9z"/>
<path class="st0" d="M124.5,53.1c0-5.5,0-11,0-16.5c0.2,0,0.3,0,0.5,0c2,0,4-0.1,6,0c2.2,0.1,4.2,0.6,5.7,2.3c0.9,1,1.5,2.3,1.8,3.6
	c0.4,1.9,0.3,3.8-0.3,5.7c-0.9,2.6-2.7,4.2-5.4,4.7c-0.7,0.1-1.4,0.2-2.1,0.2c-1.8,0-3.6,0-5.5,0C124.9,53.1,124.7,53.1,124.5,53.1z
	 M127.3,38.8c0,4,0,7.9,0,11.9c1.5-0.1,2.9-0.2,4.3-0.3c1.6-0.2,2.7-1,3.4-2.4c1-2.1,1-4.2,0.1-6.3c-0.6-1.3-1.5-2.3-3-2.5
	C130.5,39,128.9,38.9,127.3,38.8z"/>
<path class="st0" d="M41.7,45.7c0,2.4,0,4.8,0,7.3c-0.9,0-1.7,0-2.6,0c0-5.5,0-10.9,0-16.5c0.2,0,0.3,0,0.5,0c1.5,0,3,0,4.6,0
	c2.7,0,4.4,1.6,4.5,4.5c0,0.9-0.1,1.7-0.4,2.5c-0.5,1.1-1.4,1.7-2.5,2c-0.2,0.1-0.4,0.1-0.7,0.2c1.9,2.5,3.7,4.9,5.6,7.5
	c-1.1,0-2.1,0-3.1,0c-0.1,0-0.3-0.1-0.3-0.2c-1.1-1.4-2.1-2.9-3.2-4.3c-0.7-0.9-1.4-1.9-2.1-2.8C41.8,45.7,41.8,45.7,41.7,45.7z
	 M41.9,43.5c0.7,0,1.3,0.1,1.9,0c0.8-0.1,1.6-0.3,1.8-1.1c0.1-0.5,0.1-1,0.1-1.5c0-1-0.4-1.5-1.4-1.7c-0.8-0.2-1.6-0.2-2.5-0.4
	C41.9,40.4,41.9,42,41.9,43.5z"/>
<path class="st0" d="M112.2,53.1c-1,0-2,0-2.9,0c-0.2,0-0.4-0.1-0.5-0.2c-1.7-2.2-3.3-4.5-5-6.8c-0.1-0.1-0.2-0.2-0.4-0.4
	c0,2.5,0,5,0,7.4c-0.9,0-1.8,0-2.7,0c0-5.5,0-11,0-16.5c0.2,0,0.3,0,0.5,0c1.5,0,3,0,4.6,0c2.7,0,4.4,1.6,4.5,4.5
	c0,0.9-0.1,1.7-0.4,2.5c-0.5,1.1-1.4,1.7-2.5,2c-0.2,0.1-0.4,0.1-0.7,0.2C108.5,48.1,110.3,50.5,112.2,53.1z M103.5,38.7
	c0,1.7,0,3.3,0,4.7c0.6,0,1.2,0.1,1.8,0c0.4-0.1,0.9-0.2,1.3-0.4c0.8-0.5,0.9-1.3,0.8-2.2c-0.1-1-0.4-1.5-1.5-1.8
	C105.1,38.9,104.3,38.9,103.5,38.7z"/>
<path class="st0" d="M0,49.6c0.7-0.3,1.5-0.7,2.2-1c0.7,2.3,2.9,2.6,4.5,1.9c1.5-0.7,1.7-2.8,0.2-3.7c-0.8-0.5-1.7-0.9-2.6-1.4
	c-1-0.6-2-1.3-2.8-2c-0.7-0.6-1-1.4-1-2.3c-0.1-1.1,0.1-2.2,0.8-3c0.9-1.1,2-1.8,3.4-1.8c1.1-0.1,2.2-0.1,3.2,0.3
	c1.1,0.5,2,1.2,2.4,2.5c-0.6,0.3-1.2,0.7-1.8,1c-0.3,0.1-0.4,0.1-0.6-0.2c-0.7-1-1.7-1.3-2.9-1.1c-0.8,0.1-1.5,0.8-1.6,1.5
	c-0.1,0.9,0.2,1.6,1,2c1.1,0.7,2.4,1.3,3.5,2c1,0.6,2,1.2,2.6,2.4c0.7,1.6,0.3,4-0.9,5.3c-1.1,1.1-2.4,1.6-3.9,1.6
	c-1.2,0-2.3-0.1-3.4-0.6C1.1,52.2,0.2,51,0,49.6z"/>
<path class="st0" d="M37.6,53c-1,0-1.9,0-2.8,0c-0.1,0-0.3-0.2-0.3-0.3c-0.5-1.1-0.9-2.2-1.4-3.3c-0.2-0.4-0.4-0.6-0.9-0.6
	c-1.8,0.1-3.5,0-5.3,0c-0.4,0-0.5,0.1-0.7,0.5c-0.5,1.2-1,2.3-1.6,3.4c-0.1,0.1-0.3,0.3-0.4,0.3c-0.9,0-1.7,0-2.7,0
	c2.7-5.5,5.3-11,8.1-16.7C32.2,42,34.9,47.5,37.6,53z M31.7,46.6c-0.8-1.7-1.5-3.3-2.2-4.8c-0.7,1.5-1.4,3.2-2.2,4.8
	C28.9,46.6,30.3,46.6,31.7,46.6z"/>
<path class="st0" d="M19.1,53c-1,0-1.8,0-2.8,0c0-4.7,0-9.5,0-14.2c-1.5,0-2.9,0-4.4,0c0-0.8,0-1.5,0-2.2c3.8,0,7.6,0,11.4,0
	c0,0.7,0,1.4,0,2.2c-1.4,0-2.8,0-4.3,0C19.1,43.5,19.1,48.3,19.1,53z"/>
<path class="st0" d="M116.4,36.6c0,4.7,0,9.4,0,14.1c2,0,4,0,6,0c0,0.8,0,1.6,0,2.4c-2.9,0-5.8,0-8.7,0c0-5.5,0-10.9,0-16.5
	C114.5,36.6,115.4,36.6,116.4,36.6z"/>
<path class="st0" d="M148.6,36.5c0.9,0,1.8,0,2.7,0c0,4.7,0,9.4,0,14.1c2,0,4,0,6,0c0,0.8,0,1.6,0,2.3c-2.9,0-5.8,0-8.7,0
	C148.6,47.5,148.6,42.1,148.6,36.5z"/>
<path class="st0" d="M162.3,53c-0.9,0-1.8,0-2.7,0c0-5.5,0-10.9,0-16.5c0.9,0,1.8,0,2.7,0C162.3,42,162.3,47.5,162.3,53z"/>
<text transform="matrix(1 0 0 1 1.907349e-03 67.6465)" class="st1 st2 st3">We create experiences for our beloved customers</text>
</svg>
