<svg xmlns="http://www.w3.org/2000/svg" viewBox="0 0 224.83 224.83"><defs><style>.cls-1{fill:#010101;}.cls-2{fill:none;}.cls-2,.cls-3{stroke:#b9884f;stroke-miterlimit:10;}.cls-3{fill:#b9884f;}</style></defs><g id="Layer_2" data-name="Layer 2"><g id="Layer_1-2" data-name="Layer 1"><g id="aDwPEx"><path class="cls-1" d="M221.13,84.36C207.51,38.73,177.65,11,130.8,1.68c-2.62-.52-5.58.28-7.9-1.68h-23c-5.07,2.41-10.74,2.2-16,3.8C38.69,17.47,11.18,47.2,1.75,93.58c-.36,1.8,0,4-1.75,5.34v27c2.68,4.65,2.29,10.07,3.79,15,13.64,45.24,43.47,72.65,89.79,82.14,1.8.37,4,0,5.34,1.74h25c5.84-1.32,11.79-2.29,17.5-4,45-13.63,72.3-43.41,81.66-89.57.37-1.81,0-4,1.77-5.34v-26C222.42,95,222.67,89.5,221.13,84.36Zm-175,27.32a65.74,65.74,0,1,1,65.73,65.74A65.73,65.73,0,0,1,46.14,111.68Z"/></g><path class="cls-2" d="M53.08,114.69c-3.2.7-4.74-1.14-4.65-4.18A62.29,62.29,0,0,1,59.72,76.12c1.7-2.45,3.52-2.47,5.78-.52,4.82,4.16,9.43,13.8,9.45,20.61.51,3.21-1,6.1-3.31,8.63C66.64,110.33,60.16,113.15,53.08,114.69Z"/><path class="cls-2" d="M61.14,131.93c-1.71-.3-4.23.85-4.89-1.27s1.8-2.82,3.25-3.82c3.68-2.54,7.78-4.24,11.84-6.09s3.79,1.72,4.24,3.3c.53,1.81,3.26,4.79-1.26,5.79A70.81,70.81,0,0,1,61.14,131.93Z"/><path class="cls-2" d="M77.46,68.13c-.43-1.27-1-2.71.19-3.67s2.2.25,3.09.88A53.85,53.85,0,0,1,91.81,76a19.63,19.63,0,0,1,1.3,2.1A15.84,15.84,0,0,1,87,83c-2.33,1.18-2.75-1.24-3.5-2.44A59.83,59.83,0,0,1,77.46,68.13Z"/><path class="cls-2" d="M94.74,105.4c.24,2-1.29,2.84-2.61,3.46-2.27-.17-3.45-1.24-3.5-3.14a2.81,2.81,0,0,1,2.65-3A2.89,2.89,0,0,1,94.74,105.4Z"/><path class="cls-2" d="M94.88,154.13a34.36,34.36,0,0,1,1.39,14.75c-.52,3.87-2.76,4.9-5.91,3.71a64,64,0,0,1-28.51-21c-2.17-2.82-1.25-5,1.71-6.37l.87-.39c.29-.13.58-.26.87-.37a33.93,33.93,0,0,1,3.2-1.15l.82-.24a30.88,30.88,0,0,1,3.33-.75c.56-.1,1.12-.18,1.69-.25a31.78,31.78,0,0,1,4.15-.23c.57,0,1.12,0,1.65.05s1,.07,1.55.13,1,.12,1.45.21l.93.2.73.19.48.15c.38.11.74.25,1.1.39s.58.25.86.39.56.29.83.45.6.38.89.59.41.31.61.47a12.4,12.4,0,0,1,1.62,1.62c.19.22.37.45.54.68s.17.23.25.36l.36.54c.12.18.23.37.34.56s.21.36.3.54.32.6.46.92l.27.59c.09.21.18.41.26.62.17.42.33.85.49,1.3l.21.64Z"/><path class="cls-2" d="M102.74,129.94a3.05,3.05,0,0,1-3.15,3.1,2.76,2.76,0,0,1-3-2.63A2.91,2.91,0,0,1,99.32,127C101.37,126.79,102.18,128.25,102.74,129.94Z"/><path class="cls-2" d="M112.24,87.52c1.86,0,3,1.13,3.34,3.15-.35,1.69-1.35,3.12-3.24,3a3,3,0,0,1-3-3.3A2.88,2.88,0,0,1,112.24,87.52Z"/><path class="cls-2" d="M117,155.44a50.71,50.71,0,0,1-2.15,12.65c-.39,1.42-.84,3.47-2.31,3.49-1.87,0-2.13-2.16-2.58-3.68a81.91,81.91,0,0,1-2.25-12.63c-.61-4.42,1.67-4.5,4.83-4.4C117.24,151,117.24,150.93,117,155.44Z"/><path class="cls-2" d="M128.33,130c-.19,1.78-1,3-3.08,3a2.77,2.77,0,0,1-3.11-2.56,3,3,0,0,1,2.8-3.45C126.9,126.8,127.93,128.06,128.33,130Z"/><path class="cls-2" d="M92.52,57.62c-2.34-3.52-1.26-5.66,2.74-6.93,6.44-2,13-2.09,18.9-2.29,5.87.5,11,.7,15.92,2.43,3.56,1.25,4.21,3.31,2.47,6.43a20.6,20.6,0,0,1-1.32,2.1C117.93,77.62,105.23,76.72,92.52,57.62Z"/><path class="cls-2" d="M133.24,102.67a3.06,3.06,0,0,1,3,2.91c-.43,2.24-1.55,3.45-3.48,3.17a3,3,0,0,1-2.72-3.53A2.84,2.84,0,0,1,133.24,102.67Z"/><path class="cls-2" d="M132.72,76.3A59.1,59.1,0,0,1,144.54,65c1.44-1,3.17-1.8,3.3,1.5-1.63,5.69-4.08,11.39-8.09,16-2.1,2.41-4.06-1.24-6-2.34C132.36,79.33,131,78.36,132.72,76.3Z"/><path class="cls-2" d="M112.08,41.73a70.35,70.35,0,1,0,70.34,70.34A70.34,70.34,0,0,0,112.08,41.73Zm-.21,135.69a65.74,65.74,0,1,1,65.74-65.74A65.73,65.73,0,0,1,111.87,177.42Z"/><path class="cls-2" d="M163,151.65a63,63,0,0,1-28.53,20.91c-4.48,1.65-6.34-.89-6.23-8.51.25-2,.37-4.83,1-7.58,2.32-10.6,7.82-14.81,18.68-14.54a33.22,33.22,0,0,1,13.42,3.34C164.25,146.67,165.13,148.83,163,151.65Z"/><path class="cls-2" d="M168.64,130.58c-.49,1.83-2.45,1.2-3.86,1.32-.66,0-1.33,0-3.08,0-2-.33-5.16-.7-8.23-1.33-5.42-1.13-6.69-5.36-3.12-9.68,1.11-1.35,1.94-.53,3-.16a58.33,58.33,0,0,1,12.73,6.56C167.26,128.09,169.09,128.86,168.64,130.58Z"/><path class="cls-2" d="M176.36,110.94c0,2.86-1.73,4.38-4.58,3.77C164,113,157,109.87,152,103.33a9.41,9.41,0,0,1-2.11-7.52c.48-7.91,3.91-14.52,9.38-20.17,2.06-2.12,4.1-2,5.8.44A61.58,61.58,0,0,1,176.36,110.94Z"/><path class="cls-2" d="M53.08,114.69c-3.2.7-4.74-1.14-4.65-4.18A62.29,62.29,0,0,1,59.72,76.12c1.7-2.45,3.52-2.47,5.78-.52,4.82,4.16,9.43,13.8,9.45,20.61.51,3.21-1,6.1-3.31,8.63C66.64,110.33,60.16,113.15,53.08,114.69Z"/><path class="cls-2" d="M61.14,131.93c-1.71-.3-4.23.85-4.89-1.27s1.8-2.82,3.25-3.82c3.68-2.54,7.78-4.24,11.84-6.09s3.79,1.72,4.24,3.3c.53,1.81,3.26,4.79-1.26,5.79A70.81,70.81,0,0,1,61.14,131.93Z"/><path class="cls-2" d="M77.46,68.13c-.43-1.27-1-2.71.19-3.67s2.2.25,3.09.88A53.85,53.85,0,0,1,91.81,76a19.63,19.63,0,0,1,1.3,2.1A15.84,15.84,0,0,1,87,83c-2.33,1.18-2.75-1.24-3.5-2.44A59.83,59.83,0,0,1,77.46,68.13Z"/><path class="cls-2" d="M94.74,105.4c.24,2-1.29,2.84-2.61,3.46-2.27-.17-3.45-1.24-3.5-3.14a2.81,2.81,0,0,1,2.65-3A2.89,2.89,0,0,1,94.74,105.4Z"/><path class="cls-2" d="M94.88,154.13a34.36,34.36,0,0,1,1.39,14.75c-.52,3.87-2.76,4.9-5.91,3.71a64,64,0,0,1-28.51-21c-2.17-2.82-1.25-5,1.71-6.37l.87-.39c.29-.13.58-.26.87-.37a33.93,33.93,0,0,1,3.2-1.15l.82-.24a30.88,30.88,0,0,1,3.33-.75c.56-.1,1.12-.18,1.69-.25a31.78,31.78,0,0,1,4.15-.23c.57,0,1.12,0,1.65.05s1,.07,1.55.13,1,.12,1.45.21l.93.2.73.19.48.15c.38.11.74.25,1.1.39s.58.25.86.39.56.29.83.45.6.38.89.59.41.31.61.47a12.4,12.4,0,0,1,1.62,1.62c.19.22.37.45.54.68s.17.23.25.36l.36.54c.12.18.23.37.34.56s.21.36.3.54.32.6.46.92l.27.59c.09.21.18.41.26.62.17.42.33.85.49,1.3l.21.64Z"/><path class="cls-2" d="M102.74,129.94a3.05,3.05,0,0,1-3.15,3.1,2.76,2.76,0,0,1-3-2.63A2.91,2.91,0,0,1,99.32,127C101.37,126.79,102.18,128.25,102.74,129.94Z"/><path class="cls-2" d="M112.24,87.52c1.86,0,3,1.13,3.34,3.15-.35,1.69-1.35,3.12-3.24,3a3,3,0,0,1-3-3.3A2.88,2.88,0,0,1,112.24,87.52Z"/><path class="cls-2" d="M117,155.44a50.71,50.71,0,0,1-2.15,12.65c-.39,1.42-.84,3.47-2.31,3.49-1.87,0-2.13-2.16-2.58-3.68a81.91,81.91,0,0,1-2.25-12.63c-.61-4.42,1.67-4.5,4.83-4.4C117.24,151,117.24,150.93,117,155.44Z"/><path class="cls-2" d="M128.33,130c-.19,1.78-1,3-3.08,3a2.77,2.77,0,0,1-3.11-2.56,3,3,0,0,1,2.8-3.45C126.9,126.8,127.93,128.06,128.33,130Z"/><path class="cls-2" d="M92.52,57.62c-2.34-3.52-1.26-5.66,2.74-6.93,6.44-2,13-2.09,18.9-2.29,5.87.5,11,.7,15.92,2.43,3.56,1.25,4.21,3.31,2.47,6.43a20.6,20.6,0,0,1-1.32,2.1C117.93,77.62,105.23,76.72,92.52,57.62Z"/><path class="cls-2" d="M133.24,102.67a3.06,3.06,0,0,1,3,2.91c-.43,2.24-1.55,3.45-3.48,3.17a3,3,0,0,1-2.72-3.53A2.84,2.84,0,0,1,133.24,102.67Z"/><path class="cls-2" d="M132.72,76.3A59.1,59.1,0,0,1,144.54,65c1.44-1,3.17-1.8,3.3,1.5-1.63,5.69-4.08,11.39-8.09,16-2.1,2.41-4.06-1.24-6-2.34C132.36,79.33,131,78.36,132.72,76.3Z"/><path class="cls-2" d="M163,151.65a63,63,0,0,1-28.53,20.91c-4.48,1.65-6.34-.89-6.23-8.51.25-2,.37-4.83,1-7.58,2.32-10.6,7.82-14.81,18.68-14.54a33.22,33.22,0,0,1,13.42,3.34C164.25,146.67,165.13,148.83,163,151.65Z"/><path class="cls-2" d="M150.35,120.9c1.11-1.35,1.94-.53,3-.16a58.33,58.33,0,0,1,12.73,6.56c1.19.79,3,1.56,2.57,3.28s-2.45,1.2-3.86,1.32c-.66,0-1.33,0-3.08,0-2-.33-5.16-.7-8.23-1.33C148.05,129.45,146.78,125.22,150.35,120.9Z"/><path class="cls-2" d="M152,103.33a9.41,9.41,0,0,1-2.11-7.52c.48-7.91,3.91-14.52,9.38-20.17,2.06-2.12,4.1-2,5.8.44a61.58,61.58,0,0,1,11.3,34.86c0,2.86-1.73,4.38-4.58,3.77C164,113,157,109.87,152,103.33Z"/><path class="cls-2" d="M112.43,3a109.3,109.3,0,1,0,109.3,109.3A109.29,109.29,0,0,0,112.43,3ZM46.14,111.68a65.74,65.74,0,1,1,65.73,65.74A65.73,65.73,0,0,1,46.14,111.68Z"/><path class="cls-3" d="M111.87,46a65.74,65.74,0,1,0,65.74,65.73A65.73,65.73,0,0,0,111.87,46ZM144.54,65c1.44-1,3.17-1.8,3.3,1.5-1.63,5.69-4.08,11.39-8.09,16-2.1,2.41-4.06-1.24-6-2.34-1.43-.82-2.79-1.79-1.07-3.85A59.1,59.1,0,0,1,144.54,65Zm-8.25,40.57c-.43,2.24-1.55,3.45-3.48,3.17a3,3,0,0,1-2.72-3.53,2.84,2.84,0,0,1,3.15-2.55A3.06,3.06,0,0,1,136.29,105.58Zm-41-54.89c6.44-2,13-2.09,18.9-2.29,5.87.5,11,.7,15.92,2.43,3.56,1.25,4.21,3.31,2.47,6.43a20.6,20.6,0,0,1-1.32,2.1c-13.3,18.26-26,17.36-38.71-1.74C90.18,54.1,91.26,52,95.26,50.69Zm20.32,40c-.35,1.69-1.35,3.12-3.24,3a3,3,0,0,1-3-3.3,2.88,2.88,0,0,1,2.91-2.88C114.1,87.52,115.28,88.65,115.58,90.67ZM92.13,108.86c-2.27-.17-3.45-1.24-3.5-3.14a2.81,2.81,0,0,1,2.65-3,2.89,2.89,0,0,1,3.46,2.72C95,107.39,93.45,108.24,92.13,108.86ZM77.65,64.46c1.1-.85,2.2.25,3.09.88A53.85,53.85,0,0,1,91.81,76a19.63,19.63,0,0,1,1.3,2.1A15.84,15.84,0,0,1,87,83c-2.33,1.18-2.75-1.24-3.5-2.44a59.83,59.83,0,0,1-6-12.42C77,66.86,76.41,65.42,77.65,64.46ZM48.43,110.51A62.29,62.29,0,0,1,59.72,76.12c1.7-2.45,3.52-2.47,5.78-.52,4.82,4.16,9.43,13.8,9.45,20.61.51,3.21-1,6.1-3.31,8.63-5,5.49-11.48,8.31-18.56,9.85C49.88,115.39,48.34,113.55,48.43,110.51Zm7.82,20.15c-.63-2,1.8-2.82,3.25-3.82,3.68-2.54,7.78-4.24,11.84-6.09s3.79,1.72,4.24,3.3c.53,1.81,3.26,4.79-1.26,5.79a70.81,70.81,0,0,1-13.18,2.09C59.43,131.63,56.91,132.78,56.25,130.66Zm40,38.22c-.52,3.87-2.76,4.9-5.91,3.71a64,64,0,0,1-28.51-21c-2.17-2.82-1.25-5,1.71-6.37l.87-.39c.29-.13.58-.26.87-.37a33.93,33.93,0,0,1,3.2-1.15l.82-.24a30.88,30.88,0,0,1,3.33-.75c.56-.1,1.12-.18,1.69-.25a31.78,31.78,0,0,1,4.15-.23c.57,0,1.12,0,1.65.05s1,.07,1.55.13,1,.12,1.45.21l.93.2.73.19.48.15c.38.11.74.25,1.1.39s.58.25.86.39.56.29.83.45.6.38.89.59.41.31.61.47a12.4,12.4,0,0,1,1.62,1.62c.19.22.37.45.54.68s.17.23.25.36l.36.54c.12.18.23.37.34.56s.21.36.3.54.32.6.46.92l.27.59c.09.21.18.41.26.62.17.42.33.85.49,1.3l.21.64.21.66A34.36,34.36,0,0,1,96.27,168.88ZM99.59,133a2.76,2.76,0,0,1-3-2.63A2.91,2.91,0,0,1,99.32,127c2.05-.21,2.86,1.25,3.42,2.94A3.05,3.05,0,0,1,99.59,133Zm17.4,22.4a50.71,50.71,0,0,1-2.15,12.65c-.39,1.42-.84,3.47-2.31,3.49-1.87,0-2.13-2.16-2.58-3.68a81.91,81.91,0,0,1-2.25-12.63c-.61-4.42,1.67-4.5,4.83-4.4C117.24,151,117.24,150.93,117,155.44ZM125.25,133a2.77,2.77,0,0,1-3.11-2.56,3,3,0,0,1,2.8-3.45c2-.22,3,1,3.39,3C128.14,131.78,127.29,133,125.25,133ZM163,151.65a63,63,0,0,1-28.53,20.91c-4.48,1.65-6.34-.89-6.23-8.51.25-2,.37-4.83,1-7.58,2.32-10.6,7.82-14.81,18.68-14.54a33.22,33.22,0,0,1,13.42,3.34C164.25,146.67,165.13,148.83,163,151.65Zm5.68-21.07c-.49,1.83-2.45,1.2-3.86,1.32-.66,0-1.33,0-3.08,0-2-.33-5.16-.7-8.23-1.33-5.42-1.13-6.69-5.36-3.12-9.68,1.11-1.35,1.94-.53,3-.16a58.33,58.33,0,0,1,12.73,6.56C167.26,128.09,169.09,128.86,168.64,130.58Zm3.14-15.87C164,113,157,109.87,152,103.33a9.41,9.41,0,0,1-2.11-7.52c.48-7.91,3.91-14.52,9.38-20.17,2.06-2.12,4.1-2,5.8.44a61.58,61.58,0,0,1,11.3,34.86C176.4,113.8,174.63,115.32,171.78,114.71Z"/><path class="cls-2" d="M53.08,114.69c-3.2.7-4.74-1.14-4.65-4.18A62.29,62.29,0,0,1,59.72,76.12c1.7-2.45,3.52-2.47,5.78-.52,4.82,4.16,9.43,13.8,9.45,20.61.51,3.21-1,6.1-3.31,8.63C66.64,110.33,60.16,113.15,53.08,114.69Z"/><path class="cls-2" d="M61.14,131.93c-1.71-.3-4.23.85-4.89-1.27s1.8-2.82,3.25-3.82c3.68-2.54,7.78-4.24,11.84-6.09s3.79,1.72,4.24,3.3c.53,1.81,3.26,4.79-1.26,5.79A70.81,70.81,0,0,1,61.14,131.93Z"/><path class="cls-2" d="M77.46,68.13c-.43-1.27-1-2.71.19-3.67s2.2.25,3.09.88A53.85,53.85,0,0,1,91.81,76a19.63,19.63,0,0,1,1.3,2.1A15.84,15.84,0,0,1,87,83c-2.33,1.18-2.75-1.24-3.5-2.44A59.83,59.83,0,0,1,77.46,68.13Z"/><path class="cls-2" d="M94.74,105.4c.24,2-1.29,2.84-2.61,3.46-2.27-.17-3.45-1.24-3.5-3.14a2.81,2.81,0,0,1,2.65-3A2.89,2.89,0,0,1,94.74,105.4Z"/><path class="cls-2" d="M94.88,154.13a34.36,34.36,0,0,1,1.39,14.75c-.52,3.87-2.76,4.9-5.91,3.71a64,64,0,0,1-28.51-21c-2.17-2.82-1.25-5,1.71-6.37l.87-.39c.29-.13.58-.26.87-.37a33.93,33.93,0,0,1,3.2-1.15l.82-.24a30.88,30.88,0,0,1,3.33-.75c.56-.1,1.12-.18,1.69-.25a31.78,31.78,0,0,1,4.15-.23c.57,0,1.12,0,1.65.05s1,.07,1.55.13,1,.12,1.45.21l.93.2.73.19.48.15c.38.11.74.25,1.1.39s.58.25.86.39.56.29.83.45.6.38.89.59.41.31.61.47a12.4,12.4,0,0,1,1.62,1.62c.19.22.37.45.54.68s.17.23.25.36l.36.54c.12.18.23.37.34.56s.21.36.3.54.32.6.46.92l.27.59c.09.21.18.41.26.62.17.42.33.85.49,1.3l.21.64Z"/><path class="cls-2" d="M102.74,129.94a3.05,3.05,0,0,1-3.15,3.1,2.76,2.76,0,0,1-3-2.63A2.91,2.91,0,0,1,99.32,127C101.37,126.79,102.18,128.25,102.74,129.94Z"/><path class="cls-2" d="M112.24,87.52c1.86,0,3,1.13,3.34,3.15-.35,1.69-1.35,3.12-3.24,3a3,3,0,0,1-3-3.3A2.88,2.88,0,0,1,112.24,87.52Z"/><path class="cls-2" d="M117,155.44a50.71,50.71,0,0,1-2.15,12.65c-.39,1.42-.84,3.47-2.31,3.49-1.87,0-2.13-2.16-2.58-3.68a81.91,81.91,0,0,1-2.25-12.63c-.61-4.42,1.67-4.5,4.83-4.4C117.24,151,117.24,150.93,117,155.44Z"/><path class="cls-2" d="M128.33,130c-.19,1.78-1,3-3.08,3a2.77,2.77,0,0,1-3.11-2.56,3,3,0,0,1,2.8-3.45C126.9,126.8,127.93,128.06,128.33,130Z"/><path class="cls-2" d="M92.52,57.62c-2.34-3.52-1.26-5.66,2.74-6.93,6.44-2,13-2.09,18.9-2.29,5.87.5,11,.7,15.92,2.43,3.56,1.25,4.21,3.31,2.47,6.43a20.6,20.6,0,0,1-1.32,2.1C117.93,77.62,105.23,76.72,92.52,57.62Z"/><path class="cls-2" d="M133.24,102.67a3.06,3.06,0,0,1,3,2.91c-.43,2.24-1.55,3.45-3.48,3.17a3,3,0,0,1-2.72-3.53A2.84,2.84,0,0,1,133.24,102.67Z"/><path class="cls-2" d="M132.72,76.3A59.1,59.1,0,0,1,144.54,65c1.44-1,3.17-1.8,3.3,1.5-1.63,5.69-4.08,11.39-8.09,16-2.1,2.41-4.06-1.24-6-2.34C132.36,79.33,131,78.36,132.72,76.3Z"/><path class="cls-2" d="M163,151.65a63,63,0,0,1-28.53,20.91c-4.48,1.65-6.34-.89-6.23-8.51.25-2,.37-4.83,1-7.58,2.32-10.6,7.82-14.81,18.68-14.54a33.22,33.22,0,0,1,13.42,3.34C164.25,146.67,165.13,148.83,163,151.65Z"/><path class="cls-2" d="M168.64,130.58c-.49,1.83-2.45,1.2-3.86,1.32-.66,0-1.33,0-3.08,0-2-.33-5.16-.7-8.23-1.33-5.42-1.13-6.69-5.36-3.12-9.68,1.11-1.35,1.94-.53,3-.16a58.33,58.33,0,0,1,12.73,6.56C167.26,128.09,169.09,128.86,168.64,130.58Z"/><path class="cls-2" d="M176.36,110.94c0,2.86-1.73,4.38-4.58,3.77C164,113,157,109.87,152,103.33a9.41,9.41,0,0,1-2.11-7.52c.48-7.91,3.91-14.52,9.38-20.17,2.06-2.12,4.1-2,5.8.44A61.58,61.58,0,0,1,176.36,110.94Z"/></g></g></svg>